PathFileType	4	(X/Y/Z)	D:\TRACE\v60_Jaco2_6-2-23\JustBodyDRS_Motion2_8-platform.trc
DataRate	CameraRate	NumFrames	NumMarkers	Units	OrigDataRate	OrigDataStartFrame	OrigNumFrames
100.00	100.00	      42	5	mm	100.00	2593	      6914
Frame#	Time	Left_Front			Right_Front			Left_Aft			Right_Aft			Post			
		X1	Y1	Z1	X2	Y2	Z2	X3	Y3	Z3	X4	Y4	Z4	X5	Y5	Z5	

2593	25.920	-822.10059	-47.32325	-649.78632	747.99219	-45.54731	-654.97034	-730.41803	45.94051	481.18747	712.74261	46.49138	491.40891	-36.42169	1221.19263	-1080.29834	
2594	25.930	-820.83630	-46.60596	-649.43268	749.29584	-44.61505	-654.82910	-729.13446	44.74426	481.86868	713.58484	45.98687	491.66760	-35.42128	1222.64563	-1079.02600	
2595	25.940	-819.87140	-46.04303	-649.60767	750.14313	-44.03874	-654.84857	-728.07117	44.23335	482.16150	715.27435	45.76487	492.47787	-34.40670	1223.73547	-1077.50378	
2596	25.950	-818.99371	-45.00464	-649.49915	751.10333	-43.34540	-654.58264	-727.07660	43.76447	482.33633	714.89166	44.38304	491.69510	-33.56297	1225.19263	-1076.01257	
2597	25.960	-818.14056	-44.18979	-649.39996	752.35596	-42.37608	-654.25610	-726.19873	43.05224	482.55771	716.23346	43.90897	491.75513	-32.37445	1226.48499	-1074.32678	
2598	25.970	-817.08856	-43.29865	-649.05847	753.18158	-41.61845	-654.54016	-724.93652	42.67936	482.88571	717.17737	43.52937	491.96490	-31.02213	1227.41797	-1072.73853	
2599	25.980	-815.71808	-42.67694	-649.10785	754.20398	-40.68070	-654.34583	-723.89819	42.05166	483.24304	718.15228	42.84668	492.06406	-30.50822	1229.08008	-1071.20068	
2600	25.990	-814.78387	-41.93956	-649.01672	755.18896	-40.13695	-654.11224	-723.04932	41.86845	483.31479	719.39850	42.45334	492.41797	-29.47218	1230.06592	-1069.46667	
2601	26.000	-813.94269	-41.08089	-648.96729	756.26685	-39.22863	-654.14508	-721.96857	41.18857	483.40225	720.03937	41.75938	492.47858	-28.47149	1231.20642	-1067.57715	
2602	26.010	-812.82117	-40.19412	-648.86365	757.15479	-38.40915	-654.07050	-721.08911	40.75375	483.62564	721.47540	41.46709	492.73557	-27.13443	1232.69751	-1065.65979	
2603	26.020	-811.52020	-39.37595	-648.62781	758.13837	-37.58379	-653.81500	-720.00391	40.13633	483.81195	722.54425	40.81327	492.97910	-26.04633	1234.00012	-1063.80591	
2604	26.030	-810.56732	-38.65596	-648.40027	759.59668	-36.75463	-653.65393	-718.77893	39.48698	484.06644	723.67322	40.12462	493.20795	-25.09442	1235.37695	-1062.19556	
2605	26.040	-809.44592	-37.64743	-648.38379	760.66705	-35.74706	-653.53662	-717.85620	39.06256	484.33475	724.64264	39.50782	493.73126	-24.26274	1236.87964	-1060.22400	
2606	26.050	-808.40271	-36.47794	-648.24615	761.78375	-34.68995	-653.16821	-716.49811	38.21304	484.59540	725.49597	38.61904	493.81729	-22.57719	1238.70435	-1058.73303	
2607	26.060	-807.35565	-35.46583	-648.13873	762.74225	-33.74029	-653.13623	-715.44366	37.43238	484.88461	726.80688	38.02071	494.03104	-21.46378	1240.10620	-1056.54651	
2608	26.070	-806.21973	-34.34397	-647.85107	763.89844	-32.54950	-653.06750	-714.23914	36.63178	485.15530	727.69806	37.18044	494.28622	-20.49154	1242.10083	-1054.88403	
2609	26.080	-805.15851	-33.14256	-647.65479	765.05267	-31.39971	-652.57233	-713.22949	35.72690	485.54715	729.18555	36.54123	494.63031	-19.61806	1243.73962	-1052.57422	
2610	26.090	-803.95294	-31.93281	-647.38409	765.91852	-30.23762	-652.61414	-712.11243	35.06152	485.80023	730.00043	35.41262	494.92242	-18.55610	1245.62390	-1050.46033	
2611	26.100	-802.79449	-30.67617	-647.23297	767.28845	-28.91537	-652.39050	-710.83234	34.22670	486.09506	731.38245	34.68488	495.54877	-16.89419	1247.60608	-1048.37646	
2612	26.110	-801.76251	-29.35522	-647.03003	768.65631	-27.47353	-651.88525	-709.89777	33.42290	486.53839	732.35388	33.87902	495.87476	-16.00111	1249.88062	-1046.11682	
2613	26.120	-800.66119	-28.04475	-646.86340	769.30457	-26.37210	-651.98468	-708.86621	32.45404	486.70947	733.19287	32.79238	496.11588	-14.90074	1251.85388	-1043.33057	
2614	26.130	-799.47485	-27.07667	-646.47229	770.47302	-24.85778	-651.67700	-707.64984	31.44806	487.23657	734.71497	31.83104	496.36685	-14.05225	1254.03210	-1040.58569	
2615	26.140	-798.30713	-25.16102	-646.39966	772.00940	-23.74795	-651.38470	-707.06927	31.34377	487.13312	735.77539	30.94903	496.63626	-12.65286	1256.16443	-1037.83545	
2616	26.150	-797.27783	-23.93337	-646.04993	772.67065	-22.18534	-651.15601	-705.56464	30.10954	487.75723	737.11444	30.16662	497.09113	-11.18878	1258.37195	-1035.15503	
2617	26.160	-796.12775	-22.62332	-645.86700	774.09808	-20.91077	-650.75958	-704.23645	29.11255	488.38132	737.99341	29.14928	497.49847	-9.83698	1260.23364	-1032.49023	
2618	26.170	-794.97009	-21.30606	-645.45612	775.28284	-19.49393	-650.81061	-703.14172	28.25526	488.72052	738.73657	27.61333	498.07245	-9.37034	1262.58643	-1028.93250	
2619	26.180	-793.88849	-19.96526	-645.30688	776.45068	-18.25823	-650.29816	-701.91064	27.19579	489.04672	739.52350	26.57704	498.18768	-7.98357	1264.27881	-1025.49792	
2620	26.190	-792.68927	-18.61284	-645.00397	777.49506	-16.90153	-650.01392	-700.97510	26.40031	489.46347	740.95709	25.97864	498.62601	-6.99760	1266.58252	-1022.35809	
2621	26.200	-791.58569	-16.94608	-644.75861	778.51898	-15.61197	-650.08844	-699.62671	25.42523	489.77161	742.16620	25.30410	499.27621	-5.49074	1268.65564	-1018.80725	
2622	26.210	-790.41547	-15.69933	-644.58875	779.64832	-14.18590	-649.70197	-698.65424	24.76843	490.00305	743.56860	24.39998	499.36212	-4.56266	1270.94153	-1015.15320	
2623	26.220	-789.22638	-14.63121	-644.21887	780.86737	-12.83906	-649.30841	-697.42834	23.57310	490.36832	745.01025	23.68167	499.99371	-3.56880	1272.97107	-1011.52704	
2624	26.230	-788.14398	-13.35367	-644.00275	782.04456	-11.65555	-649.06122	-696.37115	22.82011	490.64267	745.93134	22.55720	500.38354	-2.64225	1275.34961	-1008.46283	
2625	26.240	-786.96381	-11.64539	-643.73700	783.11603	-9.96673	-648.96460	-695.05304	21.47593	491.27664	747.36493	21.53772	500.92853	-1.24846	1277.67017	-1005.31305	
2626	26.250	-785.82263	-9.97451	-643.33435	784.60437	-8.57521	-648.26770	-693.70660	20.26234	491.59796	749.10425	20.79613	501.78159	-0.29456	1279.97180	-1002.37939	
2627	26.260	-784.53491	-8.48919	-643.25134	785.37402	-6.97680	-647.97180	-692.82825	19.48217	492.02936	751.14124	20.56876	502.75128	1.24115	1282.16821	-999.32635	
2628	26.270	-783.49194	-6.98420	-642.60199	786.47156	-5.47360	-647.97125	-691.64197	18.17266	492.33566	749.67505	17.43809	501.11172	2.59188	1284.47266	-996.44788	
2629	26.280	-782.62982	-5.38019	-642.27008	787.64117	-3.85908	-647.34412	-690.62897	17.33597	492.72659	750.95270	16.41532	501.72687	3.34691	1287.18481	-993.35968	
2630	26.290	-781.51361	-3.69354	-642.02155	788.69531	-2.26983	-647.03375	-689.60083	16.11341	493.06741	752.24695	15.58220	502.42474	4.54413	1289.29553	-990.31531	
2631	26.300	-780.37048	-2.34127	-641.71472	789.84052	-0.66424	-646.70886	-688.35852	15.25762	493.31726	753.68408	14.51071	503.07471	5.02669	1291.99438	-986.95093	
2632	26.310	-779.15002	-0.46656	-641.44879	790.86798	0.70115	-646.53674	-687.27197	14.00747	493.82547	755.02832	13.73328	503.36963	6.64982	1294.09546	-983.30377	
2633	26.320	-778.01489	0.77175	-641.05731	791.93329	2.21623	-646.07062	-686.42908	13.17676	494.08615	755.84601	12.51318	503.54349	8.18184	1296.31030	-979.75677	
2634	26.330	-777.11139	2.10837	-640.39758	793.31525	3.74901	-645.65570	-685.12903	12.02745	494.54297	757.21692	11.54522	504.12442	9.00854	1298.45435	-976.26245	
